<?xml version="1.0" encoding="UTF-8" standalone="no"?>
<!DOCTYPE svg PUBLIC "-//W3C//DTD SVG 1.1//EN"
 "http://www.w3.org/Graphics/SVG/1.1/DTD/svg11.dtd">
<!-- Generated by graphviz version 2.47.0 (20210316.0004)
 -->
<!-- Title: dependencies Pages: 1 -->
<svg width="717pt" height="284pt"
 viewBox="0.00 0.00 717.00 284.00" xmlns="http://www.w3.org/2000/svg" xmlns:xlink="http://www.w3.org/1999/xlink">
<g id="graph0" class="graph" transform="scale(1 1) rotate(0) translate(4 280)">
<title>dependencies</title>
<polygon fill="white" stroke="transparent" points="-4,4 -4,-280 713,-280 713,4 -4,4"/>
<text text-anchor="start" x="333.51" y="-42.4" font-family="sans-serif" font-weight="bold" font-size="14.00">Legend</text>
<polygon fill="#ffffb3" stroke="transparent" points="120.5,-10 120.5,-30 140.5,-30 140.5,-10 120.5,-10"/>
<text text-anchor="start" x="144.13" y="-15.4" font-family="sans-serif" font-size="14.00"> &#160;Declarations</text>
<polygon fill="#8dd3c7" stroke="transparent" points="233.5,-10 233.5,-30 253.5,-30 253.5,-10 233.5,-10"/>
<text text-anchor="start" x="257.23" y="-15.4" font-family="sans-serif" font-size="14.00"> &#160;Module</text>
<polygon fill="#80b1d3" stroke="transparent" points="319.5,-10 319.5,-30 339.5,-30 339.5,-10 319.5,-10"/>
<text text-anchor="start" x="343.28" y="-15.4" font-family="sans-serif" font-size="14.00"> &#160;Bootstrap</text>
<polygon fill="#fdb462" stroke="transparent" points="416.5,-10 416.5,-30 436.5,-30 436.5,-10 416.5,-10"/>
<text text-anchor="start" x="440.17" y="-15.4" font-family="sans-serif" font-size="14.00"> &#160;Providers</text>
<polygon fill="#fb8072" stroke="transparent" points="512.5,-10 512.5,-30 532.5,-30 532.5,-10 512.5,-10"/>
<text text-anchor="start" x="536.23" y="-15.4" font-family="sans-serif" font-size="14.00"> &#160;Exports</text>
<g id="clust1" class="cluster">
<title>cluster_AppModule</title>
<polygon fill="none" stroke="black" stroke-dasharray="1,5" points="8,-70 8,-268 701,-268 701,-70 8,-70"/>
</g>
<g id="clust7" class="cluster">
<title>cluster_AppModule_imports</title>
<polygon fill="none" stroke="black" points="549,-78 549,-130 693,-130 693,-78 549,-78"/>
</g>
<g id="clust9" class="cluster">
<title>cluster_AppModule_bootstrap</title>
<polygon fill="none" stroke="black" points="294,-208 294,-260 418,-260 418,-208 294,-208"/>
</g>
<g id="clust2" class="cluster">
<title>cluster_AppModule_declarations</title>
<polygon fill="none" stroke="black" points="16,-78 16,-130 541,-130 541,-78 16,-78"/>
</g>
<!-- AppComponent -->
<g id="node1" class="node">
<title>AppComponent</title>
<polygon fill="#ffffb3" stroke="black" points="532.94,-122 427.06,-122 427.06,-86 532.94,-86 532.94,-122"/>
<text text-anchor="middle" x="480" y="-99.8" font-family="Times,serif" font-size="14.00">AppComponent</text>
</g>
<!-- AppModule -->
<g id="node5" class="node">
<title>AppModule</title>
<polygon fill="#8dd3c7" stroke="black" points="397.66,-187 394.66,-191 373.66,-191 370.66,-187 314.34,-187 314.34,-151 397.66,-151 397.66,-187"/>
<text text-anchor="middle" x="356" y="-164.8" font-family="Times,serif" font-size="14.00">AppModule</text>
</g>
<!-- AppComponent&#45;&gt;AppModule -->
<g id="edge1" class="edge">
<title>AppComponent&#45;&gt;AppModule</title>
<path fill="none" stroke="black" d="M480,-122.02C480,-139.37 480,-163 480,-163 480,-163 407.98,-163 407.98,-163"/>
<polygon fill="black" stroke="black" points="407.98,-159.5 397.98,-163 407.98,-166.5 407.98,-159.5"/>
</g>
<!-- GridComponent -->
<g id="node2" class="node">
<title>GridComponent</title>
<polygon fill="#ffffb3" stroke="black" points="409.49,-122 302.51,-122 302.51,-86 409.49,-86 409.49,-122"/>
<text text-anchor="middle" x="356" y="-99.8" font-family="Times,serif" font-size="14.00">GridComponent</text>
</g>
<!-- GridComponent&#45;&gt;AppModule -->
<g id="edge2" class="edge">
<title>GridComponent&#45;&gt;AppModule</title>
<path fill="none" stroke="black" d="M356,-122.11C356,-122.11 356,-140.99 356,-140.99"/>
<polygon fill="black" stroke="black" points="352.5,-140.99 356,-150.99 359.5,-140.99 352.5,-140.99"/>
</g>
<!-- SettingsComponent -->
<g id="node3" class="node">
<title>SettingsComponent</title>
<polygon fill="#ffffb3" stroke="black" points="284.45,-122 157.55,-122 157.55,-86 284.45,-86 284.45,-122"/>
<text text-anchor="middle" x="221" y="-99.8" font-family="Times,serif" font-size="14.00">SettingsComponent</text>
</g>
<!-- SettingsComponent&#45;&gt;AppModule -->
<g id="edge3" class="edge">
<title>SettingsComponent&#45;&gt;AppModule</title>
<path fill="none" stroke="black" d="M221,-122.02C221,-139.37 221,-163 221,-163 221,-163 304.03,-163 304.03,-163"/>
<polygon fill="black" stroke="black" points="304.03,-166.5 314.03,-163 304.03,-159.5 304.03,-166.5"/>
</g>
<!-- TimerComponent -->
<g id="node4" class="node">
<title>TimerComponent</title>
<polygon fill="#ffffb3" stroke="black" points="139.54,-122 24.46,-122 24.46,-86 139.54,-86 139.54,-122"/>
<text text-anchor="middle" x="82" y="-99.8" font-family="Times,serif" font-size="14.00">TimerComponent</text>
</g>
<!-- TimerComponent&#45;&gt;AppModule -->
<g id="edge4" class="edge">
<title>TimerComponent&#45;&gt;AppModule</title>
<path fill="none" stroke="black" d="M82,-122.28C82,-143.32 82,-175 82,-175 82,-175 304.09,-175 304.09,-175"/>
<polygon fill="black" stroke="black" points="304.09,-178.5 314.09,-175 304.09,-171.5 304.09,-178.5"/>
</g>
<!-- AppComponent  -->
<g id="node7" class="node">
<title>AppComponent </title>
<polygon fill="#80b1d3" stroke="black" points="410.44,-252 301.56,-252 301.56,-216 410.44,-216 410.44,-252"/>
<text text-anchor="middle" x="356" y="-229.8" font-family="Times,serif" font-size="14.00">AppComponent </text>
</g>
<!-- AppModule&#45;&gt;AppComponent  -->
<g id="edge6" class="edge">
<title>AppModule&#45;&gt;AppComponent </title>
<path fill="none" stroke="black" stroke-dasharray="1,5" d="M356,-187.11C356,-187.11 356,-205.99 356,-205.99"/>
<polygon fill="black" stroke="black" points="352.5,-205.99 356,-215.99 359.5,-205.99 352.5,-205.99"/>
</g>
<!-- AppRoutingModule -->
<g id="node6" class="node">
<title>AppRoutingModule</title>
<polygon fill="#8dd3c7" stroke="black" points="685.27,-122 682.27,-126 661.27,-126 658.27,-122 556.73,-122 556.73,-86 685.27,-86 685.27,-122"/>
<text text-anchor="middle" x="621" y="-99.8" font-family="Times,serif" font-size="14.00">AppRoutingModule</text>
</g>
<!-- AppRoutingModule&#45;&gt;AppModule -->
<g id="edge5" class="edge">
<title>AppRoutingModule&#45;&gt;AppModule</title>
<path fill="none" stroke="black" d="M621,-122.28C621,-143.32 621,-175 621,-175 621,-175 407.7,-175 407.7,-175"/>
<polygon fill="black" stroke="black" points="407.7,-171.5 397.7,-175 407.7,-178.5 407.7,-171.5"/>
</g>
</g>
</svg>
